<svg width="60" height="53" viewBox="0 0 60 53" fill="none" xmlns="http://www.w3.org/2000/svg">
<g clip-path="url(#clip0_22483_52230)">
<path d="M41.0769 11.2062L23.7227 41.7831L26.0941 45.9678L48.1684 7.0332L26.6398 7.0332V11.2062L41.0769 11.2062Z" fill="white"/>
<path d="M41.0769 11.2062L23.7227 41.7831L26.0941 45.9678L48.1684 7.0332L26.6398 7.0332V11.2062L41.0769 11.2062Z" fill="url(#paint0_linear_22483_52230)"/>
<path d="M27.2305 1.17143e-09V4.17302L53.4848 4.17302L28.259 48.6697L30.6248 52.8427L60.5733 5.20386e-10L27.2305 1.17143e-09Z" fill="white"/>
<path d="M27.2305 1.17143e-09V4.17302L53.4848 4.17302L28.259 48.6697L30.6248 52.8427L60.5733 5.20386e-10L27.2305 1.17143e-09Z" fill="url(#paint1_linear_22483_52230)"/>
<path d="M16.6462 15.3782L26.0891 32.047L28.452 27.874L25.6491 22.9293L25.6548 23.0225L23.3205 18.8989L23.3434 18.8582L12.6234 0.078125L7.90625 0.078125L14.2805 11.2052L16.6462 15.3782Z" fill="white"/>
<path d="M16.6462 15.3782L26.0891 32.047L28.452 27.874L25.6491 22.9293L25.6548 23.0225L23.3205 18.8989L23.3434 18.8582L12.6234 0.078125L7.90625 0.078125L14.2805 11.2052L16.6462 15.3782Z" fill="url(#paint2_linear_22483_52230)"/>
<path d="M9.55472 8.42417L4.76901 0.078125L0.0175781 0.078125L22.149 39.0011L24.5119 34.8281L9.55472 8.42417Z" fill="white"/>
<path d="M9.55472 8.42417L4.76901 0.078125L0.0175781 0.078125L22.149 39.0011L24.5119 34.8281L9.55472 8.42417Z" fill="url(#paint3_linear_22483_52230)"/>
</g>
<defs>
<linearGradient id="paint0_linear_22483_52230" x1="23.3394" y1="-5.945" x2="49.8093" y2="-5.67682" gradientUnits="userSpaceOnUse">
<stop offset="0.129808" stop-color="#64C4FF"/>
<stop offset="1" stop-color="#7445FF"/>
</linearGradient>
<linearGradient id="paint1_linear_22483_52230" x1="26.7077" y1="-17.6142" x2="62.8114" y2="-17.2466" gradientUnits="userSpaceOnUse">
<stop offset="0.129808" stop-color="#64C4FF"/>
<stop offset="1" stop-color="#7445FF"/>
</linearGradient>
<linearGradient id="paint2_linear_22483_52230" x1="7.5841" y1="-10.5782" x2="29.831" y2="-10.3475" gradientUnits="userSpaceOnUse">
<stop offset="0.129808" stop-color="#64C4FF"/>
<stop offset="1" stop-color="#7445FF"/>
</linearGradient>
<linearGradient id="paint3_linear_22483_52230" x1="-0.366479" y1="-12.8962" x2="26.156" y2="-12.6269" gradientUnits="userSpaceOnUse">
<stop offset="0.129808" stop-color="#64C4FF"/>
<stop offset="1" stop-color="#7445FF"/>
</linearGradient>
<clipPath id="clip0_22483_52230">
<rect width="60" height="53" fill="white"/>
</clipPath>
</defs>
</svg>
