<?xml version="1.0" encoding="UTF-8"?>
<svg id="Layer_1" data-name="Layer 1" xmlns="http://www.w3.org/2000/svg" version="1.1" viewBox="0 0 210 182">
  <defs>
    <style>
      .cls-1 {
        fill: #231f20;
        stroke-width: 0px;
      }
    </style>
  </defs>
  <polygon class="cls-1" points="143.77 38.48 83.03 143.48 91.33 157.85 168.59 24.15 93.24 24.15 93.24 38.48 143.77 38.48"/>
  <polygon class="cls-1" points="93.24 .27 93.24 14.6 185.13 14.6 96.84 167.4 105.12 181.73 209.94 .27 93.24 .27"/>
  <polygon class="cls-1" points="58.26 52.81 91.31 110.05 99.58 95.72 89.77 78.74 89.79 79.06 81.62 64.9 81.7 64.76 44.18 .27 27.67 .27 49.98 38.48 58.26 52.81"/>
  <polygon class="cls-1" points="33.44 28.93 16.69 .27 .06 .27 77.52 133.93 85.79 119.6 33.44 28.93"/>
</svg>